<svg xmlns="http://www.w3.org/2000/svg" xml:space="preserve" width="2000" height="551" data-id="lg_kXeD8IgWdrfJ6RxXqB" data-version="1" viewBox="0 0 2000 551"><g data-padding="20"><g fill="#5b0000"><path d="M1219.5 359.217a39.861 39.861 0 0 0-67.957-28.184l-102.462 102.463H982.44v-8.78a43.9 43.9 0 0 0-43.9-43.9h-8.78a17.56 17.56 0 0 0-17.56 17.56v8.78a43.9 43.9 0 0 0 9.043 26.34H850.74v105.36h298.52v-92.98l58.562-58.562a39.5 39.5 0 0 0 11.678-28.097m-289.74 47.939v-8.78h8.78a26.34 26.34 0 0 1 26.34 26.34v8.78h-8.78a26.34 26.34 0 0 1-26.34-26.34m201.94 114.14H868.3v-70.24h263.4Zm63.743-146.362-58.562 58.562h-63.129l90.083-90.083a22.301 22.301 0 1 1 31.52 31.52"/><path d="M1166.82 354.564h17.56v17.56h-17.56Zm-35.12 35.12h17.56v17.56h-17.56Zm-263.4-12.38v-1.58a38.64 38.64 0 0 0-11.414-27.394 21.07 21.07 0 0 1-6.146-14.926 22.83 22.83 0 0 0-22.74-22.74h-7.2a22.83 22.83 0 0 0-22.74 22.74 21.07 21.07 0 0 1-6.146 14.926 38.64 38.64 0 0 0-11.414 27.394v1.58a38.63 38.63 0 0 0 38.72 38.72h10.36a38.63 38.63 0 0 0 38.72-38.72m-17.56 0a21.07 21.07 0 0 1-21.16 21.16h-10.448a21.07 21.07 0 0 1-21.072-21.16v-1.58a21.07 21.07 0 0 1 6.146-14.926 38.64 38.64 0 0 0 11.414-27.394 5.27 5.27 0 0 1 5.18-5.18h7.2a5.27 5.27 0 0 1 5.18 5.18 38.64 38.64 0 0 0 11.414 27.394 21.07 21.07 0 0 1 6.146 14.926Zm-30.467-186.048v5.18a43.9 43.9 0 0 0 35.12 43.022v2.371a33.628 33.628 0 0 0 57.334 23.706l12.906-12.819 28.886 28.974 12.38-12.468-28.886-28.886 12.907-12.819a33.628 33.628 0 0 0-23.882-57.421h-2.458a43.9 43.9 0 0 0-43.022-35.12h-5.093l-1.756-1.756a39.861 39.861 0 0 0-56.367 56.192Zm10.536-45.656a22.3 22.3 0 0 1 31.52 0l7.024 6.936h12.292a26.34 26.34 0 0 1 26.34 26.34v8.78h19.141a16.068 16.068 0 0 1 11.326 27.394l-12.819 12.906-28.974-28.974-12.38 12.468 28.974 28.886-12.906 12.907a16.068 16.068 0 0 1-27.394-11.414v-19.053h-8.78a26.34 26.34 0 0 1-26.34-26.34v-12.38l-7.024-7.024a22.3 22.3 0 0 1 0-31.432m217.481 107.994a30.73 30.73 0 0 0-30.73 30.73h-4.39a30.73 30.73 0 1 0 0 61.46h4.39v35.12h61.46v-35.12h4.39a30.73 30.73 0 1 0 0-61.46h-4.39a30.73 30.73 0 0 0-30.73-30.73m13.17 109.75h-26.34v-17.56h26.34Zm21.95-61.46a13.17 13.17 0 1 1 0 26.34h-70.24a13.17 13.17 0 1 1 0-26.34h21.95v-17.56a13.17 13.17 0 1 1 26.34 0v17.56Zm-162.43-8.78a43.9 43.9 0 0 0-43.9 43.9v8.78a17.56 17.56 0 0 0 17.56 17.56h8.78a43.9 43.9 0 0 0 43.9-43.9v-8.78a17.56 17.56 0 0 0-17.56-17.56Zm8.78 26.34a26.34 26.34 0 0 1-26.34 26.34h-8.78v-8.78a26.34 26.34 0 0 1 26.34-26.34h8.78Zm205.452-115.896a61.46 61.46 0 0 0-12.292 36.876v17.56a26.34 26.34 0 0 0 17.56 24.76v19.14h17.56v-19.14a26.34 26.34 0 0 0 17.56-24.76v-10.536a43.9 43.9 0 0 1 7.288-24.145 61.46 61.46 0 0 0 10.272-33.803v-10.536h-8.78a61.46 61.46 0 0 0-49.168 24.584m5.268 36.876a43.9 43.9 0 0 1 34.33-42.846 43.9 43.9 0 0 1-6.497 16.067 61.46 61.46 0 0 0-10.273 33.803v10.536a8.78 8.78 0 1 1-17.56 0ZM956.626 72.112a43.9 43.9 0 0 1 24.058-7.288h10.536a26.34 26.34 0 0 0 24.76-17.56h19.14v-17.56h-19.14a26.34 26.34 0 0 0-24.76-17.56h-17.56a61.46 61.46 0 0 0-61.46 61.46v8.78h10.536a61.46 61.46 0 0 0 33.891-10.272m-9.307-33.628a43.9 43.9 0 0 1 26.34-8.78h17.56a8.78 8.78 0 0 1 0 17.56h-10.536a61.46 61.46 0 0 0-33.891 10.272 43.9 43.9 0 0 1-15.979 6.498 43.9 43.9 0 0 1 16.506-25.55m79.02 26.34v18.614a39.51 39.51 0 0 0-30.379 43.724l10.536 79.459a28.798 28.798 0 0 0 57.246 0l10.536-79.459a39.51 39.51 0 0 0-30.379-43.724V64.824Zm30.554 59.968-3.687 27.832h-18.087v17.56h15.804l-4.653 34.154a11.238 11.238 0 0 1-22.302 0l-9.219-69.274h20.37v-17.56h-21.424a21.95 21.95 0 0 1 43.198 7.288m57.246 62.952h8.78a26.34 26.34 0 1 0 0-52.68h-8.78a26.34 26.34 0 1 0 0 52.68m0-35.12h8.78a8.78 8.78 0 1 1 0 17.56h-8.78a8.78 8.78 0 1 1 0-17.56M956.1 99.944h-8.78a26.34 26.34 0 0 0 0 52.68h8.78a26.34 26.34 0 0 0 0-52.68m0 35.12h-8.78a8.78 8.78 0 0 1 0-17.56h8.78a8.78 8.78 0 0 1 0 17.56"/></g><path fill="transparent" stroke="transparent" d="M770.5 0h459v551h-459z"/></g></svg>